<mxfile host="Electron" modified="2023-05-02T09:31:18.568Z" agent="Mozilla/5.0 (Windows NT 10.0; Win64; x64) AppleWebKit/537.36 (KHTML, like Gecko) draw.io/21.1.2 Chrome/106.0.5249.199 Electron/21.4.3 Safari/537.36" etag="-lkL124s5CSqMBYDbqBz" version="21.1.2" type="device">
  <diagram name="Page-1" id="xrGoeptgI_vOnRFU0-Gv">
    <mxGraphModel dx="1444" dy="882" grid="1" gridSize="10" guides="1" tooltips="1" connect="1" arrows="1" fold="1" page="1" pageScale="1" pageWidth="827" pageHeight="1169" math="0" shadow="0">
      <root>
        <mxCell id="0" />
        <mxCell id="1" parent="0" />
        <mxCell id="1yAsD6T9zcCC_bL7m0QR-1" style="edgeStyle=orthogonalEdgeStyle;rounded=0;orthogonalLoop=1;jettySize=auto;html=1;entryX=0;entryY=0.5;entryDx=0;entryDy=0;" edge="1" parent="1" source="1yAsD6T9zcCC_bL7m0QR-2" target="1yAsD6T9zcCC_bL7m0QR-8">
          <mxGeometry relative="1" as="geometry" />
        </mxCell>
        <mxCell id="1yAsD6T9zcCC_bL7m0QR-2" value="Utilisateur" style="shape=umlActor;verticalLabelPosition=bottom;verticalAlign=top;html=1;outlineConnect=0;" vertex="1" parent="1">
          <mxGeometry x="30" y="590" width="30" height="60" as="geometry" />
        </mxCell>
        <mxCell id="1yAsD6T9zcCC_bL7m0QR-3" style="edgeStyle=orthogonalEdgeStyle;rounded=0;orthogonalLoop=1;jettySize=auto;html=1;entryX=0;entryY=0.5;entryDx=0;entryDy=0;" edge="1" parent="1" source="1yAsD6T9zcCC_bL7m0QR-8" target="1yAsD6T9zcCC_bL7m0QR-12">
          <mxGeometry relative="1" as="geometry" />
        </mxCell>
        <mxCell id="1yAsD6T9zcCC_bL7m0QR-4" style="edgeStyle=orthogonalEdgeStyle;rounded=0;orthogonalLoop=1;jettySize=auto;html=1;entryX=0;entryY=0.5;entryDx=0;entryDy=0;" edge="1" parent="1" source="1yAsD6T9zcCC_bL7m0QR-8" target="1yAsD6T9zcCC_bL7m0QR-16">
          <mxGeometry relative="1" as="geometry" />
        </mxCell>
        <mxCell id="1yAsD6T9zcCC_bL7m0QR-5" style="edgeStyle=orthogonalEdgeStyle;rounded=0;orthogonalLoop=1;jettySize=auto;html=1;entryX=0;entryY=0.5;entryDx=0;entryDy=0;" edge="1" parent="1" source="1yAsD6T9zcCC_bL7m0QR-8" target="1yAsD6T9zcCC_bL7m0QR-18">
          <mxGeometry relative="1" as="geometry" />
        </mxCell>
        <mxCell id="1yAsD6T9zcCC_bL7m0QR-6" style="edgeStyle=orthogonalEdgeStyle;rounded=0;orthogonalLoop=1;jettySize=auto;html=1;entryX=0;entryY=0.5;entryDx=0;entryDy=0;" edge="1" parent="1" source="1yAsD6T9zcCC_bL7m0QR-8" target="1yAsD6T9zcCC_bL7m0QR-14">
          <mxGeometry relative="1" as="geometry" />
        </mxCell>
        <mxCell id="1yAsD6T9zcCC_bL7m0QR-7" style="edgeStyle=orthogonalEdgeStyle;rounded=0;orthogonalLoop=1;jettySize=auto;html=1;entryX=0;entryY=0.5;entryDx=0;entryDy=0;startArrow=classic;startFill=1;" edge="1" parent="1" source="1yAsD6T9zcCC_bL7m0QR-8" target="1yAsD6T9zcCC_bL7m0QR-10">
          <mxGeometry relative="1" as="geometry" />
        </mxCell>
        <mxCell id="1yAsD6T9zcCC_bL7m0QR-8" value="&lt;p style=&quot;margin:0px;margin-top:4px;text-align:center;&quot;&gt;&lt;i&gt;&amp;lt;&amp;lt;View&amp;gt;&amp;gt;&lt;/i&gt;&lt;br&gt;&lt;b&gt;ListeSignature&lt;/b&gt;&lt;/p&gt;&lt;hr size=&quot;1&quot;&gt;&lt;p style=&quot;margin:0px;margin-left:4px;&quot;&gt;&lt;/p&gt;&lt;p style=&quot;margin:0px;margin-left:4px;&quot;&gt;&lt;br&gt;&lt;/p&gt;" style="verticalAlign=top;align=left;overflow=fill;fontSize=12;fontFamily=Helvetica;html=1;whiteSpace=wrap;" vertex="1" parent="1">
          <mxGeometry x="150" y="600" width="190" height="40" as="geometry" />
        </mxCell>
        <mxCell id="1yAsD6T9zcCC_bL7m0QR-9" style="edgeStyle=orthogonalEdgeStyle;rounded=0;orthogonalLoop=1;jettySize=auto;html=1;startArrow=classic;startFill=1;" edge="1" parent="1" source="1yAsD6T9zcCC_bL7m0QR-10" target="1yAsD6T9zcCC_bL7m0QR-19">
          <mxGeometry relative="1" as="geometry" />
        </mxCell>
        <mxCell id="1yAsD6T9zcCC_bL7m0QR-10" value="&lt;p style=&quot;margin:0px;margin-top:4px;text-align:center;&quot;&gt;&lt;i&gt;&amp;lt;&amp;lt;ViewModel&amp;gt;&amp;gt;&lt;/i&gt;&lt;br&gt;&lt;b&gt;ListeSignature&lt;/b&gt;&lt;/p&gt;&lt;hr size=&quot;1&quot;&gt;&lt;p style=&quot;margin:0px;margin-left:4px;&quot;&gt;&lt;br&gt;&lt;/p&gt;" style="verticalAlign=top;align=left;overflow=fill;fontSize=12;fontFamily=Helvetica;html=1;whiteSpace=wrap;" vertex="1" parent="1">
          <mxGeometry x="700" y="600" width="190" height="40" as="geometry" />
        </mxCell>
        <mxCell id="1yAsD6T9zcCC_bL7m0QR-11" style="edgeStyle=orthogonalEdgeStyle;rounded=0;orthogonalLoop=1;jettySize=auto;html=1;entryX=0;entryY=0.5;entryDx=0;entryDy=0;startArrow=classic;startFill=1;" edge="1" parent="1" source="1yAsD6T9zcCC_bL7m0QR-12" target="1yAsD6T9zcCC_bL7m0QR-10">
          <mxGeometry relative="1" as="geometry" />
        </mxCell>
        <mxCell id="1yAsD6T9zcCC_bL7m0QR-12" value="&lt;p style=&quot;margin:0px;margin-top:4px;text-align:center;&quot;&gt;&lt;i&gt;&amp;lt;&amp;lt;View&amp;gt;&amp;gt;&lt;/i&gt;&lt;br&gt;&lt;b&gt;CrÃ©erSignature&lt;/b&gt;&lt;/p&gt;&lt;hr size=&quot;1&quot;&gt;&lt;p style=&quot;margin:0px;margin-left:4px;&quot;&gt;&lt;/p&gt;&lt;p style=&quot;margin:0px;margin-left:4px;&quot;&gt;&lt;br&gt;&lt;/p&gt;" style="verticalAlign=top;align=left;overflow=fill;fontSize=12;fontFamily=Helvetica;html=1;whiteSpace=wrap;" vertex="1" parent="1">
          <mxGeometry x="410" y="510" width="190" height="40" as="geometry" />
        </mxCell>
        <mxCell id="1yAsD6T9zcCC_bL7m0QR-13" style="edgeStyle=orthogonalEdgeStyle;rounded=0;orthogonalLoop=1;jettySize=auto;html=1;entryX=0;entryY=0.5;entryDx=0;entryDy=0;startArrow=classic;startFill=1;" edge="1" parent="1" source="1yAsD6T9zcCC_bL7m0QR-14" target="1yAsD6T9zcCC_bL7m0QR-10">
          <mxGeometry relative="1" as="geometry" />
        </mxCell>
        <mxCell id="1yAsD6T9zcCC_bL7m0QR-14" value="&lt;p style=&quot;margin:0px;margin-top:4px;text-align:center;&quot;&gt;&lt;i&gt;&amp;lt;&amp;lt;View&amp;gt;&amp;gt;&lt;/i&gt;&lt;br&gt;&lt;b&gt;ModifierSignature&lt;/b&gt;&lt;/p&gt;&lt;hr size=&quot;1&quot;&gt;&lt;p style=&quot;margin:0px;margin-left:4px;&quot;&gt;&lt;/p&gt;&lt;p style=&quot;margin:0px;margin-left:4px;&quot;&gt;&lt;br&gt;&lt;/p&gt;" style="verticalAlign=top;align=left;overflow=fill;fontSize=12;fontFamily=Helvetica;html=1;whiteSpace=wrap;" vertex="1" parent="1">
          <mxGeometry x="410" y="690" width="190" height="40" as="geometry" />
        </mxCell>
        <mxCell id="1yAsD6T9zcCC_bL7m0QR-15" style="edgeStyle=orthogonalEdgeStyle;rounded=0;orthogonalLoop=1;jettySize=auto;html=1;entryX=0;entryY=0.5;entryDx=0;entryDy=0;startArrow=classic;startFill=1;" edge="1" parent="1" source="1yAsD6T9zcCC_bL7m0QR-16" target="1yAsD6T9zcCC_bL7m0QR-10">
          <mxGeometry relative="1" as="geometry" />
        </mxCell>
        <mxCell id="1yAsD6T9zcCC_bL7m0QR-16" value="&lt;p style=&quot;margin:0px;margin-top:4px;text-align:center;&quot;&gt;&lt;i&gt;&amp;lt;&amp;lt;View&amp;gt;&amp;gt;&lt;/i&gt;&lt;br&gt;&lt;b&gt;SupprimerSignature&lt;/b&gt;&lt;/p&gt;&lt;hr size=&quot;1&quot;&gt;&lt;p style=&quot;margin:0px;margin-left:4px;&quot;&gt;&lt;/p&gt;&lt;p style=&quot;margin:0px;margin-left:4px;&quot;&gt;&lt;br&gt;&lt;/p&gt;" style="verticalAlign=top;align=left;overflow=fill;fontSize=12;fontFamily=Helvetica;html=1;whiteSpace=wrap;" vertex="1" parent="1">
          <mxGeometry x="410" y="570" width="190" height="40" as="geometry" />
        </mxCell>
        <mxCell id="1yAsD6T9zcCC_bL7m0QR-17" style="edgeStyle=orthogonalEdgeStyle;rounded=0;orthogonalLoop=1;jettySize=auto;html=1;entryX=0;entryY=0.5;entryDx=0;entryDy=0;startArrow=classic;startFill=1;" edge="1" parent="1" source="1yAsD6T9zcCC_bL7m0QR-18" target="1yAsD6T9zcCC_bL7m0QR-10">
          <mxGeometry relative="1" as="geometry" />
        </mxCell>
        <mxCell id="1yAsD6T9zcCC_bL7m0QR-18" value="&lt;p style=&quot;margin:0px;margin-top:4px;text-align:center;&quot;&gt;&lt;i&gt;&amp;lt;&amp;lt;View&amp;gt;&amp;gt;&lt;/i&gt;&lt;br&gt;&lt;b&gt;VisualiserSignature&lt;/b&gt;&lt;/p&gt;&lt;hr size=&quot;1&quot;&gt;&lt;p style=&quot;margin:0px;margin-left:4px;&quot;&gt;&lt;/p&gt;&lt;p style=&quot;margin:0px;margin-left:4px;&quot;&gt;&lt;br&gt;&lt;/p&gt;" style="verticalAlign=top;align=left;overflow=fill;fontSize=12;fontFamily=Helvetica;html=1;whiteSpace=wrap;" vertex="1" parent="1">
          <mxGeometry x="410" y="630" width="190" height="40" as="geometry" />
        </mxCell>
        <mxCell id="1yAsD6T9zcCC_bL7m0QR-19" value="&lt;p style=&quot;margin:0px;margin-top:4px;text-align:center;&quot;&gt;&lt;i&gt;&amp;lt;&amp;lt;Model&amp;gt;&amp;gt;&lt;/i&gt;&lt;br&gt;&lt;b&gt;Signature&lt;/b&gt;&lt;/p&gt;&lt;hr size=&quot;1&quot;&gt;&lt;p style=&quot;margin:0px;margin-left:4px;&quot;&gt;&lt;br&gt;&lt;/p&gt;" style="verticalAlign=top;align=left;overflow=fill;fontSize=12;fontFamily=Helvetica;html=1;whiteSpace=wrap;" vertex="1" parent="1">
          <mxGeometry x="960" y="600" width="190" height="40" as="geometry" />
        </mxCell>
        <mxCell id="1yAsD6T9zcCC_bL7m0QR-20" style="edgeStyle=orthogonalEdgeStyle;rounded=0;orthogonalLoop=1;jettySize=auto;html=1;entryX=0.5;entryY=1;entryDx=0;entryDy=0;startArrow=classic;startFill=1;" edge="1" parent="1" source="1yAsD6T9zcCC_bL7m0QR-21" target="1yAsD6T9zcCC_bL7m0QR-10">
          <mxGeometry relative="1" as="geometry" />
        </mxCell>
        <mxCell id="1yAsD6T9zcCC_bL7m0QR-21" value="&lt;p style=&quot;margin:0px;margin-top:4px;text-align:center;&quot;&gt;&lt;i&gt;&amp;lt;&amp;lt;Service&amp;gt;&amp;gt;&lt;/i&gt;&lt;br&gt;&lt;b&gt;EliseWebService&lt;/b&gt;&lt;/p&gt;&lt;hr size=&quot;1&quot;&gt;&lt;p style=&quot;margin:0px;margin-left:4px;&quot;&gt;&lt;/p&gt;&lt;p style=&quot;margin:0px;margin-left:4px;&quot;&gt;&lt;br&gt;&lt;/p&gt;" style="verticalAlign=top;align=left;overflow=fill;fontSize=12;fontFamily=Helvetica;html=1;whiteSpace=wrap;" vertex="1" parent="1">
          <mxGeometry x="700" y="730" width="190" height="40" as="geometry" />
        </mxCell>
      </root>
    </mxGraphModel>
  </diagram>
</mxfile>
